<svg version="1.2" xmlns="http://www.w3.org/2000/svg" viewBox="0 0 237 238" width="237" height="238">
	<title>Group 22</title>
	<defs>
		<clipPath clipPathUnits="userSpaceOnUse" id="cp1">
			<path d="m-7.54-8h248v253h-248z"/>
		</clipPath>
	</defs>
	<style>
		.s0 { fill: #004020 } 
		.s1 { fill: #ffffff } 
	</style>
	<g id="Clip-Path" clip-path="url(#cp1)">
		<g>
			<path class="s0" d="m223.3 95.1c-0.6-2.6-1.3-5.3-2.1-7.9-13.4-44-54.3-76-102.5-76-48.3 0-89.2 32-102.6 76-0.8 2.6-1.5 5.3-2.1 7.9-1.7 7.6-2.6 15.5-2.6 23.6 0 8.2 0.9 16 2.6 23.6 0.6 2.7 1.3 5.3 2.1 7.9 13.4 44 54.3 76.1 102.6 76.1 48.2 0 89.1-32.1 102.5-76.1 0.8-2.6 1.5-5.2 2.1-7.9 1.7-7.6 2.6-15.5 2.6-23.6 0-8.1-0.9-16-2.6-23.6zm-190.6 30.5l-5.4-2.8-5.3 2.8 1-5.9-4.3-4.2 6-0.9 2.6-5.4 2.7 5.4 5.9 0.9-4.3 4.2zm159 9.5c0 0.3-0.1 0.5-0.1 0.7-0.4 1.7-0.9 3.3-1.3 4.9-9.4 30.7-37.9 53-71.6 53-33.6 0-62.1-22.3-71.5-53-0.5-1.6-0.9-3.2-1.3-4.9q-0.1-0.3-0.2-0.7c-1.2-5.3-1.8-10.8-1.8-16.4 0-5.6 0.6-11.2 1.8-16.5q0.1-0.3 0.2-0.7 0.6-2.4 1.3-4.8c9.4-30.7 37.9-53 71.5-53 33.7 0 62.2 22.3 71.6 53 0.4 1.6 0.9 3.2 1.3 4.8q0 0.4 0.1 0.7c1.2 5.3 1.9 10.8 1.9 16.5q-0.1 8.5-1.9 16.4zm23.6-9.5l-5.3-2.8-5.3 2.8 1-6-4.3-4.2 5.9-0.8 2.7-5.5 2.7 5.5 5.9 0.8-4.3 4.2z"/>
			<path class="s0" d="m118.7 237.4c-65.3 0-118.3-53.2-118.3-118.7 0-65.4 53-118.6 118.3-118.6 65.2 0 118.3 53.2 118.3 118.6 0 65.5-53.1 118.7-118.3 118.7zm0-231.7c-62.2 0-112.8 50.7-112.8 113 0 62.4 50.6 113.1 112.8 113.1 62.2 0 112.7-50.7 112.7-113.1 0-62.3-50.5-113-112.7-113z"/>
			<path class="s0" d="m118.7 186.5c-37.2 0-67.5-30.4-67.5-67.7 0-37.3 30.2-67.7 67.5-67.7 37.2 0 67.5 30.4 67.5 67.7 0 37.3-30.3 67.7-67.5 67.7zm0-134c-36.5 0-66.1 29.8-66.1 66.3 0 36.6 29.6 66.3 66.1 66.3 36.4 0 66-29.8 66-66.3 0-36.5-29.6-66.3-66-66.3z"/>
			<path class="s0" d="m118.8 63.2l3.2 6.5 7.2 1.1-5.2 5.1 1.3 7.2-6.5-3.4-6.4 3.4 1.2-7.2-5.2-5.1 7.2-1.1z"/>
			<path class="s0" d="m95.6 70l2.1 4.3 4.7 0.7-3.4 3.3 0.8 4.8-4.2-2.3-4.3 2.3 0.8-4.8-3.4-3.3 4.7-0.7z"/>
			<path class="s0" d="m142.1 70l2.1 4.3 4.7 0.7-3.4 3.3 0.8 4.8-4.2-2.3-4.2 2.3 0.8-4.8-3.4-3.3 4.7-0.7z"/>
			<path class="s0" d="m118.8 154.5l3.2 6.6 7.2 1-5.2 5.1 1.3 7.2-6.5-3.4-6.4 3.4 1.2-7.2-5.2-5.1 7.2-1z"/>
			<path class="s0" d="m95.6 153.7l2.1 4.3 4.7 0.7-3.4 3.3 0.8 4.7-4.2-2.2-4.3 2.2 0.8-4.7-3.4-3.3 4.7-0.7z"/>
			<path class="s0" d="m142.1 153.7l2.1 4.3 4.7 0.7-3.4 3.3 0.8 4.7-4.2-2.2-4.2 2.2 0.8-4.7-3.4-3.3 4.7-0.7z"/>
			<path class="s0" d="m80.3 132v-13.7q0-0.9 0-1.9 0.1-1 0.1-2-1.2 1-2.7 1.9-1.4 0.8-3 1l-0.6-5.1q1 0 2-0.4 1.1-0.4 2.1-1 1.1-0.6 1.9-1.2 0.8-0.7 1.3-1.4h4.9v23.8zm20.2 0.4q-4.8 0-7.3-3.1-2.5-3.1-2.5-9.2 0-6 2.5-9.1 2.5-3.1 7.3-3.1 4.9 0 7.4 3.1 2.5 3.1 2.5 9.1 0 6.1-2.5 9.2-2.5 3.1-7.4 3.1zm0-4.9q1.4 0 2.2-0.7 0.8-0.7 1.2-2.4 0.4-1.6 0.4-4.3 0-2.6-0.4-4.3-0.4-1.6-1.2-2.3-0.8-0.8-2.2-0.8-1.3 0-2.1 0.8-0.9 0.7-1.3 2.3-0.3 1.7-0.3 4.3 0 2.7 0.3 4.3 0.4 1.7 1.3 2.4 0.8 0.7 2.1 0.7zm23.2 4.9q-4.9 0-7.4-3.1-2.5-3.1-2.5-9.2 0-6 2.5-9.1 2.5-3.1 7.4-3.1 4.9 0 7.3 3.1 2.6 3.1 2.6 9.1 0 6.1-2.6 9.2-2.4 3.1-7.3 3.1zm0-4.9q1.3 0 2.2-0.7 0.8-0.7 1.1-2.4 0.4-1.6 0.4-4.3 0-2.6-0.4-4.3-0.3-1.6-1.1-2.3-0.9-0.8-2.2-0.8-1.3 0-2.2 0.8-0.8 0.7-1.2 2.3-0.3 1.7-0.3 4.3 0 2.7 0.3 4.3 0.4 1.7 1.2 2.4 0.9 0.7 2.2 0.7zm17.9 4.5l16.5-23.8h4.7l-16.5 23.8zm1.4-24.1q2.1 0 3.6 0.8 1.5 0.9 2.3 2.4 0.8 1.5 0.8 3.5 0 2.1-0.8 3.6-0.8 1.5-2.3 2.4-1.5 0.8-3.6 0.8-2 0-3.5-0.8-1.5-0.9-2.3-2.4-0.9-1.5-0.9-3.6 0-2 0.9-3.5 0.8-1.5 2.3-2.4 1.5-0.8 3.5-0.8zm0 4.1q-0.7 0-1.1 0.3-0.5 0.3-0.7 0.9-0.3 0.6-0.3 1.4 0 0.9 0.3 1.5 0.2 0.6 0.7 0.9 0.4 0.3 1.1 0.3 0.8 0 1.2-0.3 0.5-0.3 0.7-0.9 0.3-0.6 0.3-1.5 0-0.8-0.3-1.4-0.2-0.6-0.7-0.9-0.4-0.3-1.2-0.3zm18.2 6.8q2 0 3.5 0.9 1.6 0.8 2.4 2.3 0.8 1.5 0.8 3.6 0 2-0.8 3.6-0.8 1.5-2.4 2.3-1.5 0.9-3.5 0.9-2 0-3.5-0.9-1.5-0.8-2.4-2.3-0.8-1.6-0.8-3.6 0-2.1 0.8-3.6 0.9-1.5 2.4-2.3 1.5-0.9 3.5-0.9zm0 4.1q-0.7 0-1.2 0.4-0.4 0.2-0.7 0.9-0.2 0.5-0.2 1.4 0 0.8 0.2 1.4 0.3 0.6 0.7 1 0.5 0.3 1.2 0.3 0.7 0 1.2-0.3 0.5-0.4 0.7-1 0.3-0.6 0.3-1.4 0-0.9-0.3-1.4-0.2-0.7-0.7-0.9-0.5-0.4-1.2-0.4z"/>
		</g>
	</g>
	<path class="s1" d="m29.8 75.7l12.4 4.9-0.6 1.4-7.8-3.1-3.1-1.4h-0.1l9.4 8.3-0.5 1.3-12.7-0.4 3.3 1.1 7.8 3.1-0.6 1.4-12.4-4.9 1-2.2 8.6 0.3 3.5 0.3v-0.1l-2.7-2.1-6.4-5.6zm7.6-7.2q0.7-1.2 1.8-1.8 1.2-0.6 2.5-0.6 1.3 0.1 2.7 1 1.4 0.8 2.1 1.9 0.7 1.1 0.6 2.4 0 1.2-0.8 2.4-0.7 1.2-1.9 1.8-1.1 0.6-2.4 0.5-1.4-0.1-2.8-0.9-1.4-0.8-2-2-0.7-1.1-0.6-2.3 0-1.3 0.8-2.4zm1.1 0.7q-0.5 0.8-0.5 1.7 0 0.8 0.5 1.6 0.6 0.7 1.6 1.4 1 0.6 2 0.7 0.9 0.1 1.7-0.3 0.8-0.3 1.3-1.2 0.6-0.9 0.6-1.7-0.1-0.8-0.6-1.6-0.5-0.8-1.5-1.4-1.1-0.6-2-0.7-0.9-0.1-1.7 0.2-0.8 0.4-1.4 1.3zm12-1.9l-7.7-6.3 0.9-1.1 1.8 1.3-0.3 0.1q-0.4-0.8-0.5-1.5 0-0.7 0.3-1.4 0.3-0.7 0.8-1.2 0.7-0.9 1.6-1.3 0.9-0.4 1.8-0.3 1 0.2 2.1 1l4.9 4-1 1.2-4.5-3.7q-1.3-1-2.3-0.9-1 0.2-1.6 1-0.5 0.5-0.7 1.3-0.2 0.7 0.1 1.6 0.3 0.8 1.2 1.6l4.2 3.3zm11.5-11.9q-1.1 1-2.4 1.3-1.2 0.3-2.5-0.2-1.2-0.4-2.3-1.6-1.1-1.1-1.5-2.4-0.3-1.3 0.1-2.4 0.4-1.2 1.4-2.1 1-1 2.2-1.2 1.1-0.2 2.2 0.2 1.1 0.4 2 1.3 0.2 0.2 0.4 0.5 0.2 0.2 0.3 0.4l-6 5.4-1-1.1 5.5-4.9-0.5 0.7q-1-1.1-2.1-1.1-1.1-0.1-2.1 0.8-0.7 0.7-0.9 1.5-0.3 0.8 0 1.7 0.3 0.8 1.1 1.7 0.8 0.8 1.7 1.2 0.9 0.4 1.8 0.2 0.8-0.2 1.6-0.9 0.8-0.7 1-1.5 0.3-0.7 0.1-1.5l1.4-0.3q0.2 0.7 0.1 1.5-0.1 0.7-0.5 1.5-0.4 0.7-1.1 1.3zm6-17.3l3 12.1q0.3 1 0.2 1.7 0 0.7-0.3 1.2-0.3 0.5-0.9 1-0.6 0.3-1.2 0.5-0.5 0.2-1.1 0.2l-0.4-1.4q0.5 0.1 1 0 0.4-0.2 0.8-0.4 0.4-0.3 0.6-0.8 0.2-0.6 0-1.6l-0.4-1.3-2.2-1.3-7.1-4.3 1.5-1 5.9 3.7 1.6 1.1-0.6-2-1.8-6.4zm13.7 3.9l-5.3-11.9 4.4-1.9q2.2-0.9 3.6-0.4 1.4 0.4 2 2 0.4 0.9 0.2 1.8-0.2 1-1.1 1.6 1.2-0.2 2.2 0.3 1 0.5 1.4 1.4 0.7 1.5-0.1 3-0.8 1.4-3 2.3zm0.9-2l3.2-1.4q1.4-0.5 1.8-1.3 0.4-0.8 0-1.8-0.4-0.9-1.3-1.1-0.9-0.3-2.2 0.3l-3.2 1.3zm-2.4-5.3l2.9-1.2q2.6-1.1 1.8-3.1-0.9-1.9-3.5-0.8l-2.9 1.2zm17.5-5.1q-0.3-1.1-1.1-1.5-0.7-0.4-1.8-0.1-1 0.2-1.6 0.8-0.6 0.7-0.6 1.7l-1.5-0.4q0.1-1.2 1-2.1 0.8-1 2.4-1.4 1.1-0.3 2-0.1 1 0.1 1.7 0.7 0.7 0.5 1 1.7l1.2 4.6q0.2 0.7 1 0.5 0.3-0.1 0.7-0.3l0.2 1.2q-0.3 0.3-1 0.5-0.5 0.1-1 0-0.6-0.1-0.9-0.4-0.4-0.4-0.6-1v-0.2l0.4-0.1q0 0.8-0.5 1.4-0.4 0.7-1.1 1.1-0.6 0.4-1.3 0.5-0.9 0.3-1.7 0.2-0.8-0.1-1.4-0.6-0.6-0.4-0.8-1.3-0.3-1.1 0.2-1.9 0.6-0.9 1.8-1.5l3.7-1.8 0.3 1.3-3 1.4q-0.9 0.5-1.2 0.9-0.4 0.5-0.3 1.1 0.2 0.6 0.8 0.9 0.6 0.2 1.4 0 0.6-0.2 1.1-0.5 0.5-0.3 0.8-0.6 0.3-0.5 0.5-1 0.1-0.5-0.1-1.1zm9.9-5.5q1.1-0.2 1.9 0 0.9 0.2 1.5 0.7 0.7 0.6 1.1 1.3l-1.4 0.9q-0.4-0.9-1.2-1.3-0.7-0.4-1.7-0.3-1 0.2-1.7 0.7-0.7 0.5-0.9 1.4-0.3 0.9-0.2 2.1 0.2 1.1 0.7 1.9 0.5 0.8 1.3 1.2 0.7 0.3 1.8 0.2 0.7-0.1 1.3-0.5 0.5-0.3 0.8-0.8 0.3-0.5 0.4-1.1l1.6 0.3q-0.3 0.9-0.8 1.7-0.5 0.7-1.3 1.1-0.8 0.5-1.8 0.6-1.4 0.2-2.6-0.3-1.2-0.4-2-1.5-0.8-1-1-2.6-0.2-1.6 0.3-2.8 0.5-1.3 1.5-2 1-0.8 2.4-0.9zm17.4-0.7l-4.4 4.3-0.4 0.4-3.3 3.2v-1.9l6-6zm-7.3-4.5v14.4h-1.6v-14.4zm3.1 8l4.4 6.4h-2l-3.8-5.5zm18.7 8.9q-1.9-0.4-3.1-1.5-1.1-1.1-1.5-2.7-0.4-1.6 0.1-3.7 0.5-2 1.7-3.3 1.1-1.2 2.7-1.7 1.6-0.5 3.4-0.1 2 0.5 3 1.4 1 1 1.4 2.7l-1.6 0.4q-0.2-1.2-1-1.9-0.8-0.8-2.1-1.1-1.3-0.3-2.5 0-1.2 0.4-2.1 1.4-0.8 1-1.2 2.6-0.4 1.6-0.2 2.9 0.2 1.2 1.1 2.1 0.8 0.8 2.3 1.1 0.8 0.2 1.5 0.2 0.8-0.1 1.4-0.4 0.6-0.2 1.1-0.8 0.4-0.5 0.6-1.4l0.1-0.4-4.1-1 0.4-1.4 5.5 1.3-1.6 6.4-1.2-0.3 0.5-2.4 0.3 0.1q-0.8 1.1-2 1.5-1.3 0.4-2.9 0zm11.9 3.7q-0.9-0.4-1.6-1-0.6-0.7-0.8-1.6-0.1-1 0.4-2.1l2.5-6 1.5 0.6-2.4 5.6q-0.6 1.4-0.2 2.1 0.4 0.8 1.5 1.2 0.6 0.3 1.1 0.3 0.6 0 1.2-0.2 0.5-0.2 1-0.7 0.5-0.5 0.9-1.3l2.1-4.9 1.5 0.6-3.9 9.1-1.4-0.6 0.6-1.4q-0.9 0.6-1.9 0.7-1 0-2.1-0.4zm16.5 0.7q0.6-0.9 0.4-1.7-0.2-0.8-1.1-1.4-0.9-0.5-1.8-0.5-0.9 0-1.7 0.7l-0.7-1.3q0.9-0.8 2.2-0.8 1.3-0.1 2.7 0.7 1 0.6 1.5 1.3 0.6 0.8 0.6 1.7 0.1 0.9-0.5 1.9l-2.5 4.1q-0.4 0.6 0.3 1 0.3 0.2 0.7 0.3l-0.8 1q-0.4 0-1-0.4-0.5-0.2-0.8-0.7-0.3-0.4-0.3-0.9 0.1-0.5 0.4-1.1l0.1-0.2 0.3 0.3q-0.6 0.5-1.3 0.7-0.8 0.1-1.5-0.1-0.8-0.1-1.4-0.5-0.8-0.4-1.3-1.1-0.5-0.6-0.6-1.3 0-0.8 0.5-1.6 0.5-0.9 1.6-1.2 1-0.2 2.3 0.3l3.9 1.3-0.7 1.1-3.2-1.1q-0.9-0.3-1.5-0.2-0.6 0.1-1 0.6-0.3 0.5-0.1 1.1 0.2 0.6 1 1 0.5 0.3 1.1 0.5 0.5 0.1 1 0.1 0.6-0.1 1-0.4 0.5-0.3 0.8-0.8zm1.3 8.4l6.2-7.9 1 0.8-0.8 1.4q0.9-0.4 1.8-0.3 0.9 0.1 1.9 0.8 0.2 0.2 0.4 0.4 0.2 0.2 0.3 0.4l-1.1 1q-0.1-0.2-0.3-0.4-0.2-0.2-0.6-0.5-0.5-0.3-1.2-0.4-0.7-0.1-1.5 0.2-0.8 0.3-1.5 1.2l-3.4 4.3zm15 4.2q0.8-0.8 0.8-1.6 0-0.8-0.8-1.6-0.7-0.7-1.6-0.9-0.8-0.2-1.8 0.3l-0.3-1.4q1-0.6 2.3-0.3 1.3 0.2 2.5 1.3 0.7 0.8 1.1 1.6 0.4 0.9 0.2 1.8-0.1 0.9-1 1.7l-3.4 3.4q-0.5 0.6 0 1.1 0.3 0.2 0.6 0.4l-0.9 0.8q-0.4-0.1-0.9-0.5-0.4-0.4-0.6-0.9-0.2-0.5-0.1-1 0.2-0.5 0.7-0.9l0.1-0.2 0.3 0.3q-0.8 0.4-1.5 0.4-0.8-0.1-1.5-0.4-0.7-0.3-1.2-0.8-0.6-0.6-1-1.3-0.3-0.8-0.2-1.5 0.1-0.8 0.8-1.4 0.7-0.8 1.8-0.8 1.1 0 2.2 0.7l3.4 2.2-0.9 0.9-2.8-1.7q-0.8-0.5-1.4-0.6-0.6-0.1-1.1 0.4-0.4 0.4-0.4 1 0.1 0.6 0.8 1.2 0.4 0.4 0.9 0.7 0.5 0.3 1 0.3 0.5 0.1 1-0.1 0.5-0.1 1-0.6zm-0.8 8.5l8-6.1 0.9 1.1-1.7 1.5v-0.3q0.8-0.3 1.5-0.1 0.8 0.1 1.4 0.5 0.6 0.4 1.1 1 0.6 0.8 0.8 1.8 0.3 0.9-0.1 1.8-0.3 0.9-1.4 1.7l-5.1 3.9-1-1.2 4.7-3.6q1.3-1 1.4-1.9 0.1-1-0.5-1.8-0.5-0.5-1.2-0.9-0.7-0.3-1.6-0.3-0.9 0.1-2 0.9l-4.2 3.3zm19.8 5.1l-8.8 5.1q-0.7 0.4-0.8 0.9-0.1 0.5 0.2 1.1 0.3 0.5 0.7 0.8 0.4 0.2 0.9 0.3l-0.9 1.2q-0.6-0.2-1.1-0.6-0.6-0.4-1-1.1-0.4-0.7-0.5-1.4-0.1-0.7 0.2-1.3 0.4-0.6 1.2-1.1l8.7-5zm-0.7 4.5l-1.2 0.7-3.7-6.1 1.2-0.7zm-6.2 11q-0.6-1.3-0.4-2.6 0.1-1.2 0.9-2.2 0.9-1.1 2.4-1.7 1.5-0.7 2.8-0.6 1.3 0.1 2.4 0.9 1 0.7 1.5 1.9 0.6 1.3 0.4 2.4-0.1 1.1-0.9 2-0.7 0.9-1.9 1.4-0.3 0.2-0.6 0.3-0.3 0-0.5 0.1l-3.2-7.3 1.3-0.6 3 6.7-0.5-0.7q1.3-0.6 1.7-1.6 0.4-1-0.1-2.2-0.4-0.8-1.1-1.3-0.7-0.5-1.7-0.5-0.9 0-2 0.5-1.1 0.5-1.7 1.2-0.7 0.7-0.8 1.5-0.1 0.9 0.3 1.8 0.4 1 1.1 1.4 0.7 0.5 1.5 0.6l-0.2 1.4q-0.8-0.1-1.5-0.4-0.7-0.3-1.2-0.9-0.6-0.6-1-1.5zm3.9 10.6q-0.4-1.3-0.1-2.6 0.3-1.2 1.2-2.1 1-0.9 2.6-1.3 1.6-0.5 2.9-0.2 1.3 0.3 2.2 1.1 0.9 0.9 1.3 2.2 0.4 1.3 0.1 2.4-0.4 1.1-1.2 1.9-0.9 0.8-2.1 1.1-0.4 0.1-0.6 0.2-0.3 0-0.6 0l-2.2-7.6 1.4-0.4 2 7-0.3-0.7q1.4-0.4 1.9-1.4 0.6-0.9 0.2-2.2-0.3-0.9-0.9-1.4-0.6-0.6-1.6-0.7-0.9-0.2-2.1 0.2-1.1 0.3-1.8 0.9-0.8 0.6-1 1.4-0.3 0.8 0 1.8 0.3 1 0.9 1.6 0.6 0.5 1.4 0.7l-0.3 1.4q-0.8-0.2-1.5-0.6-0.6-0.4-1.1-1.1-0.5-0.6-0.7-1.6z"/>
	<path class="s1" d="m37.6 144q-0.1-0.5 0.1-0.9 0.2-0.4 0.8-0.6 0.5-0.1 0.9 0.1 0.4 0.3 0.6 0.8 0.1 0.5-0.2 0.9-0.2 0.4-0.7 0.5-0.5 0.2-1-0.1-0.4-0.2-0.5-0.7zm-1.7 1.2l-9.8 2.4-0.4-1.5 9.8-2.4zm6.7 5.3q0.2 0.5 0.2 0.9 0 0.5-0.1 0.8h-1.4q0.1-0.3 0.1-0.6 0-0.2-0.1-0.6-0.3-0.8-0.9-1.1-0.5-0.3-1.4 0l-1.4 0.4-0.5 0.2-9.2 2.8-0.5-1.5 11.3-3.5q0.6-0.2 1.2-0.2 0.6 0 1.1 0.3 0.5 0.3 0.9 0.8 0.5 0.5 0.7 1.3zm-4 2.9l-1.3 0.5-2.2-6.6 1.3-0.4zm-1.4 19.1l-0.8-1.5 2.6-2.9-2.9-5.2-3.9 0.5-0.8-1.5 14.2-1.6 0.9 1.7zm0.5-9.8l2.4 4.2 4.6-5.1zm-2.6 14.1l11.6-8.2 0.9 1.2-2 1.5 0.1-0.3q0.8-0.2 1.5-0.1 0.8 0.1 1.4 0.5 0.7 0.4 1.2 1.1 0.8 1 0.9 2.2 0.1 1.1-0.5 2.3-0.5 1.2-1.9 2.1-1.3 1-2.7 1.1-1.3 0.2-2.4-0.3-1.1-0.5-1.9-1.4-0.7-1-0.8-2.1 0-1.1 0.5-2h0.4l-5.3 3.7zm7.2 0.7q0.9 1.2 2.3 1.2 1.3 0.1 2.7-0.9 1.4-1 1.8-2.2 0.3-1.3-0.5-2.4-0.6-0.8-1.4-1.1-0.8-0.3-1.8-0.1-0.9 0.1-1.9 0.8-0.9 0.7-1.4 1.5-0.4 0.8-0.4 1.6 0.1 0.8 0.6 1.6zm14.3 2.9q1 1 1.3 2.2 0.3 1.2-0.2 2.5-0.4 1.2-1.6 2.3-1.1 1.1-2.4 1.4-1.3 0.4-2.6 0-1.2-0.4-2.2-1.4-0.9-1-1.2-2.2-0.4-1.2 0.1-2.5 0.4-1.2 1.6-2.3 1.2-1.1 2.5-1.4 1.3-0.4 2.5 0 1.2 0.4 2.2 1.4zm-1 0.9q-0.7-0.7-1.6-0.9-0.8-0.2-1.7 0.1-0.9 0.3-1.8 1.1-0.9 0.8-1.2 1.6-0.4 0.9-0.2 1.7 0.1 0.8 0.9 1.6 0.7 0.7 1.5 0.9 0.9 0.2 1.7-0.1 1-0.3 1.8-1.1 0.9-0.8 1.2-1.6 0.4-0.9 0.2-1.7-0.1-0.8-0.8-1.6zm1.8 13.9q-1.1-0.9-1.7-2.2-0.6-1.2-0.3-2.5l1.7 0.1q-0.3 1 0 1.9 0.4 0.9 1.3 1.7 0.9 0.7 1.6 0.7 0.7 0.1 1.1-0.4 0.3-0.3 0.3-0.8 0-0.4-0.5-1l-1.5-1.9q-1-1.1-1-2.1-0.1-0.9 0.6-1.7 0.5-0.6 1.3-0.8 0.8-0.3 1.8 0 0.9 0.2 1.8 1 1.2 0.9 1.6 2 0.5 1.1 0.2 2.2l-1.6-0.2q0.3-0.9-0.1-1.7-0.3-0.8-1-1.3-0.5-0.4-1.1-0.6-0.5-0.2-0.9-0.1-0.4 0.1-0.7 0.5-0.3 0.3-0.3 0.8 0 0.4 0.5 1.1l1.7 1.9q0.9 1.1 0.9 2 0 0.8-0.5 1.5-0.6 0.7-1.5 1-0.8 0.2-1.8-0.1-0.9-0.3-1.9-1zm14.9-5.1l-5.6 8.2q-0.5 0.6-0.3 1.1 0.2 0.6 0.7 0.9 0.5 0.3 1 0.4 0.4 0.1 0.9 0l-0.3 1.4q-0.6 0.1-1.3-0.1-0.6-0.1-1.3-0.6-0.7-0.4-1.1-1-0.4-0.6-0.4-1.3 0-0.7 0.6-1.5l5.5-8.1zm1.5 4.4l-0.8 1.1-6.1-4 0.8-1.1zm3-0.5q-0.4-0.3-0.6-0.7-0.1-0.5 0.2-0.9 0.2-0.5 0.7-0.6 0.4-0.1 0.9 0.1 0.5 0.3 0.6 0.7 0.2 0.5-0.1 0.9-0.3 0.5-0.7 0.6-0.5 0.2-1-0.1zm-0.2 2l-4.9 8.6-1.4-0.8 4.9-8.6zm6.2-1.9l-5.3 10.7q-0.3 0.6-0.2 1 0.1 0.4 0.7 0.7 0.4 0.1 0.6 0.2 0.3 0 0.8 0.1l-0.9 1.1q-0.3 0-0.7-0.1-0.4-0.1-0.8-0.3-1.1-0.5-1.3-1.3-0.3-0.9 0.3-2.1l5.3-10.7zm4.9 2.1l-4.6 11q-0.3 0.7-0.2 1 0.2 0.4 0.8 0.6 0.3 0.2 0.6 0.2 0.3 0.1 0.7 0.1l-0.7 1.2q-0.4 0-0.8-0.1-0.4-0.1-0.7-0.2-1.2-0.5-1.5-1.3-0.3-0.9 0.2-2.1l4.7-11zm2.8 16.2q-1.4-0.4-2.3-1.3-0.9-0.9-1.2-2.2-0.2-1.2 0.2-2.8 0.5-1.5 1.4-2.4 1-1 2.2-1.2 1.2-0.3 2.6 0.1 1.3 0.4 2.1 1.2 0.8 0.9 1 2 0.2 1.1-0.2 2.4-0.1 0.3-0.2 0.5-0.1 0.3-0.2 0.5l-7.8-2.3 0.4-1.4 7.2 2.1h-0.9q0.4-1.4-0.1-2.4-0.5-0.9-1.8-1.3-0.9-0.3-1.8-0.1-0.8 0.3-1.4 1-0.6 0.6-1 1.8-0.3 1.1-0.2 2 0.2 0.9 0.7 1.6 0.6 0.6 1.6 0.9 1.1 0.3 1.9 0.1 0.8-0.2 1.4-0.7l1 1q-0.6 0.6-1.3 0.9-0.7 0.3-1.6 0.3-0.8 0-1.7-0.3zm16.3-8.5q-0.5-0.1-0.8-0.4-0.3-0.4-0.2-0.9 0-0.6 0.4-0.8 0.4-0.3 0.9-0.2 0.6 0 0.9 0.4 0.3 0.4 0.2 0.9-0.1 0.5-0.5 0.8-0.3 0.3-0.9 0.2zm0.6 2l-1.3 9.8-1.6-0.3 1.3-9.7zm6.1 10.5q-1.5-0.1-2.7-0.8-1.2-0.6-1.8-1.8l1.4-0.9q0.4 0.9 1.2 1.5 0.9 0.5 2.1 0.6 1 0.1 1.7-0.3 0.6-0.4 0.6-1 0-0.4-0.2-0.8-0.3-0.4-1-0.6l-2.4-0.6q-1.5-0.4-2.1-1.1-0.6-0.7-0.6-1.7 0.1-0.8 0.6-1.5 0.5-0.6 1.4-1 0.9-0.3 2.1-0.3 1.5 0.1 2.5 0.7 1 0.7 1.4 1.7l-1.4 0.8q-0.3-0.9-1-1.3-0.8-0.5-1.6-0.5-0.7 0-1.3 0.1-0.5 0.2-0.8 0.5-0.3 0.4-0.3 0.8 0 0.4 0.3 0.8 0.3 0.4 1.1 0.6l2.5 0.6q1.4 0.4 2 1 0.5 0.7 0.4 1.6 0 0.9-0.5 1.6-0.6 0.7-1.5 1-0.9 0.3-2.1 0.3zm13.9-0.4l-1.5-9.8 1.4-0.2 0.5 2.2-0.3-0.2q0.2-0.8 0.7-1.4 0.4-0.5 1.1-0.8 0.7-0.3 1.4-0.5 1.1-0.1 2.1 0.2 0.9 0.3 1.6 1 0.6 0.8 0.8 2l1 6.3-1.6 0.2-0.9-5.7q-0.2-1.6-1.1-2.2-0.8-0.5-1.8-0.4-0.7 0.1-1.4 0.6-0.7 0.4-1 1.2-0.4 0.8-0.2 2.1l0.8 5.2zm13.6-12.7q1.4-0.4 2.6-0.1 1.3 0.3 2.2 1.3 0.9 0.9 1.4 2.5 0.4 1.5 0.1 2.8-0.3 1.3-1.2 2.2-0.9 0.8-2.3 1.2-1.3 0.3-2.6 0-1.2-0.3-2.1-1.2-1-1-1.4-2.5-0.4-1.6-0.1-2.8 0.2-1.3 1.1-2.2 1-0.9 2.3-1.2zm0.4 1.3q-1 0.3-1.6 0.9-0.6 0.6-0.7 1.5-0.2 0.9 0.2 2.1 0.3 1.1 0.9 1.8 0.6 0.7 1.4 1 0.9 0.2 1.9 0 1-0.3 1.5-0.9 0.6-0.6 0.8-1.6 0.1-0.9-0.2-2-0.3-1.1-1-1.8-0.6-0.8-1.4-1-0.8-0.3-1.8 0zm7.3-6.4l3.7 9.3q0.3 0.7 0.8 0.8 0.5 0.2 1.2 0 0.5-0.2 0.8-0.6 0.4-0.3 0.5-0.7l1.1 1q-0.3 0.6-0.8 1-0.5 0.5-1.3 0.7-0.7 0.3-1.4 0.3-0.7 0-1.3-0.4-0.6-0.4-1-1.3l-3.7-9.1zm4.5 1.3l0.5 1.3-6.8 2.5-0.5-1.2zm14.2 8.6l-7.6-11.9 1.2-0.8 1.5 2-0.4-0.1q-0.1-0.7 0-1.4 0.2-0.7 0.7-1.4 0.5-0.6 1.2-1.1 1-0.6 2.3-0.6 1.2 0 2.3 0.7 1.2 0.6 2.1 2 0.8 1.4 0.9 2.7 0.1 1.3-0.5 2.4-0.5 1-1.6 1.7-1.1 0.6-2.2 0.6-1.1-0.1-2-0.7v-0.3l3.5 5.4zm1.2-7q1.3-0.7 1.4-2 0.2-1.3-0.7-2.8-1-1.4-2.2-1.9-1.3-0.5-2.5 0.3-0.8 0.5-1.2 1.3-0.4 0.7-0.3 1.6 0.1 1 0.8 1.9 0.6 1 1.4 1.5 0.8 0.5 1.6 0.6 0.9 0 1.7-0.5zm3.9-13.5q1.1-0.9 2.4-1.1 1.2-0.2 2.5 0.3 1.2 0.5 2.2 1.8 1.1 1.2 1.4 2.5 0.2 1.3-0.3 2.4-0.4 1.2-1.5 2.1-1.1 0.8-2.4 1-1.2 0.2-2.5-0.3-1.2-0.5-2.3-1.8-1-1.2-1.2-2.5-0.3-1.3 0.1-2.4 0.5-1.2 1.6-2zm0.9 1q-0.8 0.6-1.1 1.4-0.2 0.8 0 1.7 0.2 0.9 1 1.9 0.8 0.9 1.6 1.3 0.9 0.4 1.7 0.3 0.9-0.1 1.7-0.7 0.8-0.6 1.1-1.4 0.2-0.8 0-1.7-0.3-0.9-1-1.8-0.8-1-1.6-1.4-0.9-0.4-1.7-0.3-0.9 0.1-1.7 0.7zm14.3-0.6q-1 1.1-2.3 1.5-1.3 0.4-2.6 0.1l0.2-1.6q1 0.3 2 0.1 1-0.3 1.8-1.1 0.8-0.8 0.9-1.5 0.1-0.7-0.4-1.1-0.3-0.3-0.7-0.4-0.5 0-1.1 0.4l-2.1 1.3q-1.2 0.8-2.2 0.8-0.9-0.1-1.7-0.8-0.6-0.6-0.7-1.3-0.2-0.9 0.1-1.7 0.3-0.9 1.2-1.8 1-1 2.2-1.3 1.1-0.3 2.2 0.1l-0.3 1.5q-0.9-0.4-1.7-0.1-0.8 0.2-1.4 0.8-0.5 0.5-0.7 1-0.2 0.5-0.2 0.9 0.1 0.5 0.4 0.8 0.3 0.3 0.8 0.3 0.5 0.1 1.2-0.4l2.1-1.4q1.2-0.8 2.1-0.7 0.8 0 1.5 0.7 0.7 0.6 0.9 1.5 0.1 0.8-0.3 1.7-0.3 0.9-1.2 1.7zm7.1-7.8q-0.9 1.2-2.2 1.7-1.3 0.6-2.6 0.4l0.1-1.6q1 0.2 1.9-0.1 1-0.4 1.7-1.3 0.7-0.8 0.7-1.5 0.1-0.8-0.4-1.2-0.4-0.2-0.8-0.2-0.5 0-1.1 0.5l-1.9 1.5q-1.1 0.9-2.1 1-0.9 0.1-1.8-0.6-0.6-0.5-0.9-1.3-0.2-0.8 0-1.7 0.2-0.9 1-1.8 0.9-1.2 2-1.6 1.1-0.4 2.2-0.1l-0.1 1.5q-0.9-0.3-1.7 0.1-0.8 0.3-1.3 1-0.5 0.5-0.6 1-0.2 0.5-0.1 1 0.1 0.4 0.5 0.7 0.3 0.2 0.8 0.2 0.5 0 1.1-0.5l2-1.6q1.1-0.9 2-1 0.8 0 1.6 0.6 0.7 0.5 1 1.4 0.2 0.8 0 1.7-0.3 0.9-1 1.8zm-5.6-12.7q-0.3 0.4-0.8 0.5-0.5 0.1-0.9-0.2-0.5-0.3-0.6-0.7-0.1-0.5 0.2-0.9 0.3-0.5 0.8-0.6 0.5-0.1 0.9 0.2 0.5 0.3 0.6 0.8 0.1 0.4-0.2 0.9zm2 0.4l8.5 5.5-0.9 1.3-8.5-5.5zm12.9-1.8q-0.4 0.7-1 1.2-0.6 0.5-1.3 0.7-0.8 0.2-1.5 0.1l-0.1-0.3 2.1 1.2-0.7 1.2-13.1-6.8 0.8-1.4 6.1 3.2-0.3 0.1q-0.7-0.8-0.8-1.9-0.1-1.1 0.5-2.2 0.6-1.1 1.6-1.7 1.1-0.6 2.4-0.6 1.3 0 2.8 0.8 1.5 0.7 2.2 1.8 0.8 1.1 0.8 2.3 0.1 1.2-0.5 2.3zm-1.3-0.5q0.7-1.3 0.1-2.5-0.5-1.2-2-2-1.6-0.8-2.9-0.6-1.3 0.2-2 1.5-0.5 0.8-0.4 1.7 0.1 0.8 0.7 1.5 0.6 0.8 1.6 1.3 1 0.6 2 0.6 0.9 0.1 1.7-0.3 0.7-0.4 1.2-1.2zm-8.5-13.3l11.3 4.6q0.7 0.3 1.1 0.2 0.3-0.2 0.6-0.7 0.1-0.4 0.2-0.7 0-0.2 0-0.7l1.3 0.8q0 0.3-0.1 0.7-0.1 0.4-0.2 0.8-0.5 1.1-1.4 1.4-0.8 0.2-2.1-0.3l-11.3-4.6zm16.7-2.6q-0.5 1.4-1.4 2.3-0.9 0.8-2.2 1-1.3 0.3-2.9-0.2-1.6-0.5-2.5-1.4-1-0.9-1.3-2.1-0.3-1.2 0.2-2.5 0.4-1.3 1.2-2.1 0.9-0.8 2.1-0.9 1.1-0.2 2.4 0.1 0.3 0.2 0.5 0.3 0.3 0.1 0.5 0.2l-2.4 7.6-1.3-0.5 2.1-6.9-0.1 0.8q-1.4-0.4-2.3 0.1-1 0.5-1.4 1.7-0.3 0.9-0.1 1.8 0.3 0.7 1 1.4 0.7 0.6 1.8 0.9 1.2 0.4 2.1 0.3 1-0.2 1.6-0.7 0.7-0.6 1-1.5 0.3-1.1 0.1-1.8-0.2-0.8-0.8-1.4l1.1-1q0.6 0.6 0.9 1.3 0.3 0.7 0.3 1.5 0.1 0.8-0.2 1.7z"/>
</svg>